<svg version="1.1" id="Layer_1" xmlns="http://www.w3.org/2000/svg" xmlns:xlink="http://www.w3.org/1999/xlink" x="0px" y="0px"
	 width="100%" viewBox="0 0 1426 1426" enable-background="new 0 0 1426 1426" xml:space="preserve">
<path fill="#F7F8FA" opacity="1.000000" stroke="none" 
	d="
M983.000000,1427.000000 
	C656.833374,1427.000000 331.166779,1426.992432 5.500204,1427.093018 
	C1.751420,1427.094238 0.906317,1426.249512 0.907095,1422.500122 
	C1.005217,950.166870 1.005209,477.833649 0.907200,5.500449 
	C0.906423,1.752450 1.749462,0.906266 5.499588,0.907045 
	C477.832794,1.005207 950.166016,1.005191 1422.499268,0.907253 
	C1426.246582,0.906476 1427.093750,1.748502 1427.093018,5.499333 
	C1426.994751,477.832550 1426.994751,950.165771 1427.092651,1422.499023 
	C1427.093506,1426.245605 1426.252808,1427.097046 1422.500854,1427.094116 
	C1276.167358,1426.983154 1129.833618,1427.000000 983.000000,1427.000000 
z"/>
<path fill="#1185FE" opacity="1.000000" stroke="none" 
	d="
M337.251709,1129.927490 
	C337.140228,1129.369751 337.006958,1129.144287 336.612915,1128.876953 
	C335.695892,1128.685913 335.551117,1128.100464 335.160950,1127.339600 
	C334.920990,1127.159668 334.932312,1127.052612 334.878662,1127.056885 
	C334.718475,1126.872559 334.611969,1126.683838 334.222717,1126.334961 
	C333.940002,1126.174561 333.948486,1126.053711 333.887939,1126.056885 
	C333.720856,1125.872437 333.614288,1125.684692 333.232788,1125.326172 
	C331.851837,1123.854736 330.745850,1122.554077 329.357666,1121.100342 
	C327.976501,1120.083496 327.119049,1119.018188 326.190247,1117.569702 
	C325.423126,1116.684326 324.911316,1116.028564 324.143311,1115.193726 
	C323.753723,1114.834473 323.620392,1114.654053 323.253815,1114.231323 
	C323.020538,1113.988892 323.001190,1113.999023 323.006989,1113.989014 
	C322.319946,1113.405518 321.931244,1112.603760 321.168396,1111.693359 
	C320.898529,1111.506348 320.667358,1111.100098 320.469238,1110.976074 
	C314.343811,1104.491943 309.117706,1097.592896 304.364105,1089.921509 
	C304.275146,1089.580444 304.163849,1089.245483 304.032593,1089.127441 
	C298.191711,1082.244507 294.072083,1074.528320 290.294617,1066.194214 
	C290.146423,1065.869751 290.023285,1065.990601 290.094849,1065.942383 
	C288.664703,1063.512207 287.669586,1060.875366 286.291748,1058.041870 
	C286.197388,1057.700195 286.165192,1057.315796 286.062469,1057.152466 
	C285.534454,1056.557129 285.529999,1055.967163 285.192291,1055.218872 
	C284.986023,1054.828369 284.963409,1054.652344 284.821106,1054.238647 
	C284.618347,1053.807007 284.535278,1053.613159 284.281677,1053.152588 
	C284.111145,1052.886108 284.016937,1052.967896 284.075470,1052.946289 
	C283.518555,1052.552734 283.528107,1051.878174 283.267487,1050.991943 
	C283.189362,1050.687500 283.161621,1050.312988 283.061646,1050.154053 
	C278.292542,1039.148193 275.322845,1027.841919 273.724457,1016.152710 
	C270.544952,992.900574 273.884033,970.705261 284.664062,949.326294 
	C284.927734,948.995422 285.145660,948.688843 285.173340,948.502808 
	C286.958221,943.664673 289.375824,939.389709 292.757263,935.271118 
	C293.005493,935.018799 293.003510,935.003967 293.010437,935.002075 
	C293.701569,934.244202 293.892090,933.185974 294.809326,932.232239 
	C295.031921,932.028076 295.000000,932.000000 295.015564,932.013977 
	C295.444336,931.573975 295.500885,930.959839 296.026855,930.332764 
	C296.305298,930.234009 296.132050,930.039734 296.198975,930.151367 
	C296.254364,929.899414 296.386169,929.598572 296.885986,929.228760 
	C297.110687,929.096863 297.003662,928.999512 297.053528,929.051575 
	C297.225861,928.804321 297.412537,928.552612 297.834351,928.184448 
	C298.005249,928.020447 298.004944,928.005310 298.011841,928.002197 
	C298.969513,926.310059 300.068420,924.736694 301.791931,923.248047 
	C302.027283,923.028992 302.000000,923.000000 302.015076,923.012329 
	C302.453400,922.413818 302.812500,921.745911 303.660522,921.141296 
	C303.819366,920.910767 303.920349,920.923706 303.913879,920.873230 
	C304.513184,920.554443 304.497437,919.912109 305.008331,919.317261 
	C305.270630,919.205688 305.031311,919.096802 305.140991,919.169312 
	C308.626831,914.911377 312.803619,911.356934 316.949707,907.318848 
	C317.542480,907.104858 317.787628,906.969055 318.086090,906.560913 
	C318.336365,905.666870 318.924255,905.545837 319.670471,905.162231 
	C319.850250,904.928162 319.948547,904.948914 319.949402,904.898682 
	C320.138184,904.731323 320.326111,904.614136 320.712830,904.230713 
	C320.911591,903.964478 320.981476,903.986938 320.974487,903.950928 
	C321.150085,903.775330 321.332611,903.635803 321.761230,903.255066 
	C322.007385,903.013855 322.000916,903.000000 322.007355,903.004456 
	C322.231567,902.776917 322.456299,902.551941 322.887817,902.203613 
	C323.087646,902.073242 322.993439,902.027161 323.038422,902.056885 
	C323.961609,900.872375 325.116241,900.009521 326.697815,899.189331 
	C327.254059,898.903137 327.544922,898.749451 327.912903,898.287598 
	C328.557648,897.433105 329.166962,896.889771 330.111725,896.313354 
	C330.409485,896.240601 330.748413,896.145325 330.873993,896.021973 
	C331.178650,895.759033 331.357727,895.619385 331.802612,895.266846 
	C332.230865,894.994385 332.393280,894.934814 332.741394,894.694092 
	C333.478363,894.196472 333.936310,893.750977 334.687897,893.177917 
	C334.912231,892.954468 334.975037,892.995483 334.969574,892.958374 
	C335.686188,892.217651 336.614380,891.856445 337.663330,891.165710 
	C338.148346,890.782410 338.456970,890.636108 338.905334,890.270264 
	C342.836151,886.112244 347.841309,884.065857 352.772797,881.258362 
	C353.073761,881.081116 353.016968,880.995178 353.038116,881.041260 
	C353.267365,880.754639 353.538239,880.484863 354.162628,880.277649 
	C354.453339,880.277100 354.781067,880.234253 354.907654,880.127991 
	C356.750977,878.064270 359.474457,877.905823 361.737305,876.236084 
	C362.015778,876.045471 362.019257,876.012573 362.033508,876.020996 
	C366.184601,873.182495 370.584167,870.868652 375.707642,869.227661 
	C375.995697,869.016235 376.005066,869.005249 376.012390,869.005737 
	C376.437256,868.571106 377.017181,868.528442 377.773438,868.201477 
	C377.996338,868.029663 378.013092,868.015869 378.023773,868.013794 
	C381.757935,865.098694 386.630798,864.756653 390.950775,862.289490 
	C391.301178,862.184814 391.676849,862.153625 391.837708,862.055359 
	C402.142609,857.072876 412.776733,853.529175 423.934387,850.301025 
	C424.300110,850.184875 424.680847,850.167480 424.845276,850.071167 
	C433.982758,846.662537 443.359924,844.672974 452.763824,841.447021 
	C453.364441,841.202881 453.608887,841.116821 454.224640,840.919678 
	C455.348297,840.633606 456.094879,840.438232 457.196472,840.071899 
	C462.152557,839.174377 466.602692,837.760986 471.579895,837.027466 
	C474.978790,836.818420 477.850433,835.591187 479.952087,835.683533 
	C475.659790,836.620239 470.311218,836.884399 464.686859,838.086975 
	C447.020325,838.634888 429.712372,839.862671 412.480194,838.809937 
	C392.319794,837.578308 372.117798,835.519104 352.473694,830.671692 
	C338.354614,827.187622 324.113922,823.688232 310.412170,817.257385 
	C310.009705,817.072266 309.672485,816.869324 309.476593,816.850708 
	C305.749115,815.289185 301.931732,814.443726 298.327087,812.191772 
	C298.068970,811.934265 298.028320,811.999451 298.038666,811.963135 
	C297.578156,811.569458 297.002136,811.495544 296.245422,811.144836 
	C275.097137,800.440674 255.613220,787.897888 238.566956,771.609863 
	C212.051834,746.274048 194.148117,715.784241 182.982391,681.085266 
	C176.561478,661.131348 174.713928,640.354980 172.098984,619.741333 
	C167.698471,585.051819 164.446579,550.231506 161.377655,515.405029 
	C158.249222,479.903229 155.619095,444.356171 152.970810,408.813995 
	C151.485779,388.883606 150.136826,368.935394 149.215485,348.972656 
	C148.188950,326.730927 149.745148,304.634521 156.263748,283.212799 
	C165.469467,252.960541 183.732376,231.706635 216.143723,225.559891 
	C233.256287,222.314499 250.330399,223.815506 267.209442,227.647034 
	C303.740173,235.939484 336.716827,252.339218 368.014282,272.388184 
	C412.495605,300.882599 450.973602,336.489380 487.428589,374.371765 
	C538.005554,426.929108 583.448242,483.702667 625.423828,543.317261 
	C653.832581,583.663940 680.501648,625.080200 704.075073,668.451599 
	C708.343323,676.304382 712.403809,684.270142 717.031311,693.080688 
	C721.031494,685.429199 724.553284,678.562744 728.189880,671.757629 
	C753.663025,624.089355 783.137634,578.942932 814.458496,534.961182 
	C847.432312,488.658417 882.694885,444.177979 920.802002,401.989594 
	C960.638367,357.886932 1002.768799,316.199493 1051.639526,281.993561 
	C1086.924683,257.296570 1124.586304,237.207458 1167.018433,227.641830 
	C1189.250732,222.629944 1211.585083,221.380081 1233.373657,230.118912 
	C1252.192871,237.666840 1264.714111,251.673737 1272.777588,269.857697 
	C1282.277588,291.280701 1284.907715,314.065704 1284.936157,337.194000 
	C1284.969116,364.036194 1282.332031,390.760834 1280.512817,417.511322 
	C1278.671387,444.589874 1276.407471,471.643463 1274.001709,498.678894 
	C1271.345581,528.530701 1268.426025,558.360291 1265.418945,588.179138 
	C1262.847046,613.681641 1260.556641,639.268616 1255.206543,664.360046 
	C1247.261353,701.620850 1230.247070,734.412781 1204.394775,762.500977 
	C1181.280029,787.615173 1153.231201,805.375305 1121.300415,817.962708 
	C1120.520874,818.471130 1119.953247,818.469666 1119.230713,818.808777 
	C1119.020630,818.981567 1118.989624,818.976990 1118.979126,818.988647 
	C1118.547485,819.444214 1117.959106,819.472900 1117.159912,819.738342 
	C1116.899902,819.852722 1116.959229,819.997681 1116.923706,819.925659 
	C1112.150146,821.544739 1107.541138,823.630066 1102.203613,824.710876 
	C1101.856079,824.869629 1101.404053,824.901978 1101.192383,824.982544 
	C1100.512695,825.490112 1099.890015,825.473816 1099.046631,825.723389 
	C1098.762695,825.808105 1098.354736,825.842102 1098.168091,825.926025 
	C1097.269165,826.711914 1096.317993,826.375854 1095.207031,826.746094 
	C1094.922119,826.909302 1094.977173,827.000488 1094.962769,826.949341 
	C1080.348145,831.384888 1065.364136,834.090332 1050.247314,835.886902 
	C1033.482300,837.879578 1016.704407,839.452942 999.712585,838.719299 
	C992.031616,838.387573 984.238159,837.650635 976.491638,838.566162 
	C972.311340,839.060181 968.257935,837.824646 963.755981,837.297241 
	C960.234314,836.167053 956.980286,835.941223 953.861145,835.833984 
	C954.308838,836.094177 954.961670,835.953003 955.955566,836.005005 
	C964.441650,837.327576 972.559082,838.656372 980.645020,841.767578 
	C993.210327,845.653442 1005.537720,849.049744 1017.644470,853.104919 
	C1049.872192,863.899475 1080.425781,878.094849 1107.243652,899.348938 
	C1126.570435,914.665771 1142.394653,932.907410 1152.050781,955.916443 
	C1165.009888,986.795654 1163.127686,1017.646362 1151.380859,1048.341675 
	C1139.878296,1078.398315 1121.145874,1103.711670 1099.163330,1126.794434 
	C1071.942505,1155.377686 1042.504883,1181.289795 1007.845642,1200.659790 
	C984.790161,1213.544678 960.396790,1222.514526 933.732422,1223.933594 
	C898.716675,1225.797241 868.405762,1213.699951 841.578491,1192.001099 
	C812.870728,1168.781250 792.061279,1139.169312 774.180603,1107.306763 
	C752.591248,1068.835327 736.923706,1027.841919 722.939453,986.143982 
	C721.776184,982.675354 720.494629,979.246094 719.243774,975.807312 
	C718.851013,974.727661 718.561340,973.327698 717.252014,973.177856 
	C715.510620,972.978577 715.201660,974.643494 714.780212,975.827637 
	C711.490723,985.070496 708.238770,994.326965 705.019531,1003.594604 
	C690.296570,1045.978882 673.015747,1087.200073 649.135132,1125.367920 
	C633.776489,1149.915283 616.123352,1172.565796 593.566589,1191.055664 
	C551.292603,1225.707764 504.598724,1232.974976 453.664551,1213.566772 
	C446.990845,1211.023804 440.565094,1207.830322 433.681335,1204.867188 
	C432.987885,1204.759277 432.673370,1204.635376 432.216064,1204.228027 
	C432.031494,1204.045776 431.742798,1203.815063 431.561066,1203.781494 
	C423.550690,1199.695068 415.579987,1195.886475 408.282379,1190.226807 
	C408.026123,1189.975342 408.001221,1190.000000 408.010803,1189.986084 
	C405.665527,1188.735352 403.256653,1187.577637 401.212738,1185.296631 
	C400.956177,1185.085327 400.974396,1185.006470 400.941650,1185.030273 
	C398.680206,1183.653809 396.183777,1182.631470 394.225952,1180.277588 
	C393.976654,1180.058350 393.982941,1179.996338 393.958008,1180.015015 
	C391.388092,1178.262329 388.564301,1176.865234 386.237488,1174.246826 
	C385.997009,1174.015259 385.999023,1173.996094 385.989868,1174.000122 
	C385.827148,1173.838745 385.673523,1173.673462 385.234009,1173.326660 
	C384.948151,1173.145264 384.952728,1173.056030 384.908783,1173.063843 
	C383.863098,1172.025391 382.348602,1171.647583 381.231903,1170.244873 
	C380.775452,1169.781006 380.544189,1169.529785 380.076111,1169.176025 
	C378.364349,1167.888184 376.686127,1166.949951 375.219299,1165.254395 
	C374.984009,1165.040283 374.991669,1164.993042 374.971100,1165.005371 
	C374.807495,1164.848389 374.664490,1164.678833 374.238373,1164.334229 
	C373.577606,1163.775146 373.199921,1163.390869 372.563599,1162.914429 
	C371.075623,1162.344849 370.369965,1161.250122 369.251099,1160.162354 
	C368.843658,1159.666626 368.638702,1159.412476 368.195068,1159.082397 
	C367.815186,1158.843872 367.673950,1158.681274 367.262787,1158.341064 
	C366.629700,1157.775513 366.266541,1157.387329 365.671448,1156.867676 
	C363.655334,1156.193848 362.786774,1154.555420 361.276855,1153.182129 
	C361.067474,1152.930054 361.001221,1153.000000 361.033264,1152.964844 
	C358.351685,1151.696533 356.437622,1149.537109 354.454956,1147.010986 
	C354.339874,1146.698242 354.311401,1146.940430 354.308105,1146.818604 
	C353.898621,1146.734497 353.570831,1146.591797 353.318115,1145.981079 
	C353.315063,1145.692749 353.163269,1146.030518 353.250916,1145.866943 
	C352.583740,1145.647461 352.558014,1145.012207 352.148132,1144.329956 
	C351.915619,1144.162476 351.928833,1144.072632 351.883911,1144.079224 
	C351.281677,1143.178955 350.087250,1143.127075 349.366760,1142.026978 
	C349.273163,1141.740356 349.216156,1141.821899 349.237274,1141.786987 
	C348.875916,1141.741455 348.569427,1141.579346 348.283508,1141.015869 
	C348.238403,1140.745850 348.199799,1140.798706 348.225952,1140.765259 
	C344.928925,1138.380981 342.349701,1135.257690 339.404663,1132.056274 
	C339.253387,1131.755371 339.058777,1131.765137 339.153931,1131.771240 
	C338.871521,1131.746338 338.567780,1131.576538 338.276184,1131.018921 
	C338.224365,1130.751099 338.044739,1130.917603 338.148407,1130.852417 
	C337.851929,1130.736938 337.539001,1130.544556 337.251709,1129.927490 
z"/>
<path fill="#C7EFFE" opacity="1.000000" stroke="none" 
	d="
M310.218475,817.344849 
	C323.818848,821.840393 337.644531,826.557007 351.927490,829.755920 
	C385.604675,837.298523 419.674347,839.608276 454.083008,837.403503 
	C457.403992,837.190674 460.731354,837.077454 464.520142,836.923340 
	C467.305939,836.344727 469.621429,836.149536 471.932312,837.479736 
	C467.274719,838.983765 462.605438,840.041443 457.526550,841.086304 
	C455.123932,841.092285 453.330780,840.418457 451.333801,839.241150 
	C434.204132,839.965088 417.455414,840.083679 400.531006,838.523254 
	C388.161987,837.382751 375.956757,835.406616 363.690155,833.815857 
	C353.418671,832.483887 343.463806,829.313721 333.553497,826.268250 
	C325.680206,823.848816 317.551208,822.059998 310.218475,817.344849 
z"/>
<path fill="#B9E9FF" opacity="1.000000" stroke="none" 
	d="
M961.593506,835.789490 
	C998.583618,839.639404 1035.046509,838.886963 1071.261963,831.946167 
	C1078.926147,830.477295 1086.503418,828.554565 1094.534546,826.869568 
	C1089.294434,831.369629 1082.146606,830.972290 1075.672119,832.398865 
	C1053.460205,837.292969 1030.864990,839.444031 1008.136780,839.864868 
	C1000.132080,840.013062 992.111816,839.439697 984.102234,839.109985 
	C982.425659,839.041016 981.049500,839.028198 980.981689,841.573242 
	C972.775696,841.288940 965.065308,838.236023 956.601013,836.896423 
	C957.322998,834.209045 959.565369,836.044067 961.593506,835.789490 
z"/>
<path fill="#C7EDFE" opacity="1.000000" stroke="none" 
	d="
M284.587097,949.054443 
	C277.503021,965.736450 272.817230,983.106628 273.185303,1001.569824 
	C273.513702,1018.043152 277.302917,1033.834961 282.973328,1049.608887 
	C278.848175,1047.879272 279.529053,1043.405396 278.296722,1039.991821 
	C272.356018,1023.536621 271.061676,1006.390930 272.141327,989.100891 
	C272.777496,978.912598 275.478424,969.041199 279.064209,959.457397 
	C280.423096,955.825439 280.889130,951.744690 284.587097,949.054443 
z"/>
<path fill="#C7EDFE" opacity="1.000000" stroke="none" 
	d="
M451.041077,839.343140 
	C453.008972,839.096863 455.184784,838.461304 456.813538,840.858704 
	C456.592194,841.325378 456.067444,841.577148 455.246948,841.809570 
	C454.782806,841.726807 454.614380,841.663330 454.242676,841.777588 
	C444.627777,844.646362 435.216064,847.337402 425.407043,850.001587 
	C429.778961,845.945435 436.235565,846.560486 441.484467,843.996094 
	C444.630249,842.459167 448.782898,843.146912 451.041077,839.343140 
z"/>
<path fill="#C7EDFE" opacity="1.000000" stroke="none" 
	d="
M423.876404,850.120605 
	C413.783173,854.109192 403.266235,858.033508 392.373932,861.957458 
	C394.926056,857.984436 399.611023,857.575012 403.787384,856.108826 
	C410.264954,853.834778 416.523193,850.859131 423.876404,850.120605 
z"/>
<path fill="#C7EDFE" opacity="1.000000" stroke="none" 
	d="
M290.095306,1066.263916 
	C294.698242,1073.356445 299.250092,1080.843140 303.851624,1088.669556 
	C301.078949,1088.805908 300.224701,1086.382690 299.091766,1084.481079 
	C295.677368,1078.750000 291.780731,1073.245972 290.095306,1066.263916 
z"/>
<path fill="#C7EDFE" opacity="1.000000" stroke="none" 
	d="
M304.203918,1089.970337 
	C309.548370,1096.447876 314.821594,1103.315430 320.182983,1110.517578 
	C316.072845,1109.314941 314.158020,1105.458008 311.818451,1102.172241 
	C309.099304,1098.353516 305.064453,1095.346802 304.203918,1089.970337 
z"/>
<path fill="#C7EDFE" opacity="1.000000" stroke="none" 
	d="
M408.063293,1190.315674 
	C415.667664,1194.385864 423.309235,1198.796387 431.165070,1203.477539 
	C427.235229,1204.656982 425.061768,1200.849976 421.777130,1199.609863 
	C416.663269,1197.679077 411.664734,1195.150513 408.063293,1190.315674 
z"/>
<path fill="#C7EDFE" opacity="1.000000" stroke="none" 
	d="
M316.891785,907.139648 
	C313.453705,911.101746 309.656494,915.046692 305.554993,919.116699 
	C307.251282,913.563599 311.976074,910.421387 316.891785,907.139648 
z"/>
<path fill="#C7EDFE" opacity="1.000000" stroke="none" 
	d="
M352.695679,881.050781 
	C348.624084,884.026794 344.174438,886.972473 339.384918,889.984497 
	C341.597565,884.289673 347.476593,883.417908 352.695679,881.050781 
z"/>
<path fill="#C7EDFE" opacity="1.000000" stroke="none" 
	d="
M292.656372,935.047241 
	C290.588043,939.310730 288.170593,943.602600 285.477051,948.105713 
	C285.667175,942.882080 288.198364,938.555542 292.656372,935.047241 
z"/>
<path fill="#C7EDFE" opacity="1.000000" stroke="none" 
	d="
M375.604248,868.989502 
	C371.899475,871.935974 367.193726,873.698303 362.405762,876.006836 
	C365.276489,871.513489 370.238373,870.226501 375.604248,868.989502 
z"/>
<path fill="#C7EDFE" opacity="1.000000" stroke="none" 
	d="
M339.206390,1132.113525 
	C342.186584,1134.537842 345.119751,1137.320312 348.152496,1140.417236 
	C343.688934,1139.665161 341.367218,1136.131104 339.206390,1132.113525 
z"/>
<path fill="#C7EDFE" opacity="1.000000" stroke="none" 
	d="
M390.896790,862.125488 
	C387.450623,864.820984 382.963684,866.086426 378.405884,868.005493 
	C378.220428,865.700745 380.247314,865.312012 381.809601,864.725037 
	C384.637695,863.662537 387.591248,862.934021 390.896790,862.125488 
z"/>
<path fill="#B9E9FF" opacity="1.000000" stroke="none" 
	d="
M1102.274902,824.928345 
	C1106.370117,822.526428 1111.305908,821.377991 1116.496094,819.846436 
	C1112.583618,822.745178 1107.924316,824.656311 1102.274902,824.928345 
z"/>
<path fill="#C7EFFE" opacity="1.000000" stroke="none" 
	d="
M298.107697,812.291504 
	C301.655060,813.385376 305.241180,814.836548 309.053986,816.559814 
	C305.294708,816.168335 301.160675,815.898743 298.107697,812.291504 
z"/>
<path fill="#C7EDFE" opacity="1.000000" stroke="none" 
	d="
M386.029083,1174.363037 
	C388.960175,1175.237549 391.173126,1177.513550 393.780823,1179.741211 
	C390.432343,1179.555908 387.738831,1177.884399 386.029083,1174.363037 
z"/>
<path fill="#C7EDFE" opacity="1.000000" stroke="none" 
	d="
M401.002960,1185.433472 
	C403.547577,1185.985474 405.562744,1187.789551 407.864044,1189.681152 
	C404.595734,1190.406982 402.452179,1188.710693 401.002960,1185.433472 
z"/>
<path fill="#C7EDFE" opacity="1.000000" stroke="none" 
	d="
M354.267822,1147.061157 
	C356.506500,1148.566528 358.673065,1150.434937 360.952454,1152.616455 
	C357.258362,1152.987427 355.487152,1150.505005 354.267822,1147.061157 
z"/>
<path fill="#C7EDFE" opacity="1.000000" stroke="none" 
	d="
M394.015320,1180.405273 
	C396.587524,1180.926270 398.373322,1183.032104 400.755371,1184.763916 
	C397.860352,1184.836914 395.369965,1183.730225 394.015320,1180.405273 
z"/>
<path fill="#C7EDFE" opacity="1.000000" stroke="none" 
	d="
M286.133789,1058.088379 
	C288.019836,1059.920532 288.998688,1062.583374 290.142029,1065.533447 
	C287.450897,1064.167236 286.833282,1061.281738 286.133789,1058.088379 
z"/>
<path fill="#C7EDFE" opacity="1.000000" stroke="none" 
	d="
M361.648132,876.051331 
	C360.307007,877.976685 357.831024,878.683838 355.381226,880.004089 
	C355.772156,876.582458 359.152283,877.306030 361.648132,876.051331 
z"/>
<path fill="#C7EDFE" opacity="1.000000" stroke="none" 
	d="
M301.671997,923.052002 
	C301.404724,924.969788 299.826660,926.210999 298.309448,927.854370 
	C297.834503,925.497986 298.989441,923.893860 301.671997,923.052002 
z"/>
<path fill="#C7EDFE" opacity="1.000000" stroke="none" 
	d="
M375.018677,1165.386719 
	C376.971588,1165.580933 378.090424,1167.283936 379.713501,1168.777100 
	C377.454193,1169.091675 375.871552,1167.960083 375.018677,1165.386719 
z"/>
<path fill="#C7EDFE" opacity="1.000000" stroke="none" 
	d="
M361.078918,1153.292480 
	C362.818542,1153.505127 363.871735,1154.970825 365.299683,1156.436279 
	C363.033630,1157.058716 361.818878,1155.700073 361.078918,1153.292480 
z"/>
<path fill="#C7EDFE" opacity="1.000000" stroke="none" 
	d="
M326.553589,898.964417 
	C326.277466,900.424683 324.863983,901.045654 323.392212,902.012024 
	C323.027679,899.958191 324.273712,899.126099 326.553589,898.964417 
z"/>
<path fill="#C7EDFE" opacity="1.000000" stroke="none" 
	d="
M325.943298,1117.680420 
	C326.933319,1118.341431 327.931702,1119.342529 329.002747,1120.645386 
	C327.114594,1120.953125 326.186829,1119.856445 325.943298,1117.680420 
z"/>
<path fill="#C7EDFE" opacity="1.000000" stroke="none" 
	d="
M381.037659,1170.379150 
	C382.594635,1170.285645 383.444977,1171.628662 384.745605,1172.777100 
	C383.140167,1173.033081 381.583008,1172.723389 381.037659,1170.379150 
z"/>
<path fill="#C7EDFE" opacity="1.000000" stroke="none" 
	d="
M369.064758,1160.283325 
	C370.044373,1160.693604 371.040131,1161.466309 372.170410,1162.530762 
	C370.600281,1163.030029 369.492462,1162.353516 369.064758,1160.283325 
z"/>
<path fill="#C7EDFE" opacity="1.000000" stroke="none" 
	d="
M294.686676,932.070557 
	C294.544678,932.921509 294.057465,933.814880 293.293762,934.854248 
	C292.999756,933.827332 292.891479,932.612854 294.686676,932.070557 
z"/>
<path fill="#C7EDFE" opacity="1.000000" stroke="none" 
	d="
M349.234375,1142.090332 
	C350.062866,1142.331665 350.852600,1142.922974 351.740662,1143.800049 
	C350.692719,1143.963257 349.398132,1144.078857 349.234375,1142.090332 
z"/>
<path fill="#C7EDFE" opacity="1.000000" stroke="none" 
	d="
M320.917603,1111.819092 
	C321.576324,1112.140503 322.254120,1112.774658 322.972351,1113.693848 
	C321.741608,1114.014282 321.095856,1113.346558 320.917603,1111.819092 
z"/>
<path fill="#C7EDFE" opacity="1.000000" stroke="none" 
	d="
M337.503357,890.932007 
	C337.084076,891.571533 336.328369,892.214355 335.268372,892.889221 
	C335.044342,891.533813 335.919067,891.027588 337.503357,890.932007 
z"/>
<path fill="#C7EDFE" opacity="1.000000" stroke="none" 
	d="
M330.051880,896.204468 
	C329.823975,896.811523 329.238525,897.382507 328.346008,898.012695 
	C328.096069,897.007202 328.500519,896.244568 330.051880,896.204468 
z"/>
<path fill="#C7EDFE" opacity="1.000000" stroke="none" 
	d="
M303.509705,920.967834 
	C303.401093,921.541687 302.982849,922.172607 302.297363,922.914062 
	C301.994751,922.109253 302.277435,921.379883 303.509705,920.967834 
z"/>
<path fill="#C7EDFE" opacity="1.000000" stroke="none" 
	d="
M334.631409,892.970215 
	C334.423767,893.436829 333.935272,893.919128 333.186951,894.457153 
	C333.080933,893.705017 333.557190,893.197632 334.631409,892.970215 
z"/>
<path fill="#B9E9FF" opacity="1.000000" stroke="none" 
	d="
M1095.262695,826.970642 
	C1095.720093,826.579102 1096.518188,826.248962 1097.648926,825.964355 
	C1097.425293,826.901123 1096.554443,827.060059 1095.262695,826.970642 
z"/>
<path fill="#C7EDFE" opacity="1.000000" stroke="none" 
	d="
M304.979187,919.260498 
	C304.995544,919.684570 304.720490,920.163391 304.176392,920.732544 
	C304.167542,920.320251 304.427643,919.817810 304.979187,919.260498 
z"/>
<path fill="#C7EDFE" opacity="1.000000" stroke="none" 
	d="
M351.957031,1144.460327 
	C352.340607,1144.496826 352.765594,1144.831299 353.264587,1145.434570 
	C352.891907,1145.388428 352.445190,1145.073242 351.957031,1144.460327 
z"/>
<path fill="#C7EFFE" opacity="1.000000" stroke="none" 
	d="
M296.194763,811.210815 
	C296.596893,811.108887 297.160553,811.264771 297.886597,811.673706 
	C297.484772,811.774109 296.920532,811.621338 296.194763,811.210815 
z"/>
<path fill="#B9E9FF" opacity="1.000000" stroke="none" 
	d="
M1119.310181,819.011475 
	C1119.483154,818.680054 1119.945557,818.378479 1120.691650,818.103394 
	C1120.516846,818.433716 1120.058350,818.737488 1119.310181,819.011475 
z"/>
<path fill="#C7EDFE" opacity="1.000000" stroke="none" 
	d="
M334.970337,1127.469849 
	C335.361755,1127.516357 335.802582,1127.873047 336.339294,1128.507812 
	C335.963409,1128.450562 335.491547,1128.115234 334.970337,1127.469849 
z"/>
<path fill="#B9E9FF" opacity="1.000000" stroke="none" 
	d="
M1117.204102,819.902466 
	C1117.390259,819.551270 1117.880615,819.249878 1118.669922,818.974426 
	C1118.481812,819.317688 1117.994995,819.635010 1117.204102,819.902466 
z"/>
<path fill="#B9E9FF" opacity="1.000000" stroke="none" 
	d="
M1099.076782,825.871460 
	C1099.295654,825.528870 1099.828491,825.249634 1100.671021,825.016785 
	C1100.450684,825.353699 1099.920776,825.644226 1099.076782,825.871460 
z"/>
<path fill="#C7EDFE" opacity="1.000000" stroke="none" 
	d="
M377.697510,868.016357 
	C377.534180,868.363159 377.072021,868.696655 376.314758,869.018188 
	C376.479340,868.671875 376.939026,868.337463 377.697510,868.016357 
z"/>
<path fill="#C7EDFE" opacity="1.000000" stroke="none" 
	d="
M284.994263,1055.302246 
	C285.339447,1055.469360 285.670288,1055.934448 285.980408,1056.694336 
	C285.633148,1056.526123 285.306519,1056.063110 284.994263,1055.302246 
z"/>
<path fill="#C7EDFE" opacity="1.000000" stroke="none" 
	d="
M283.137390,1051.023560 
	C283.508301,1051.219727 283.827271,1051.751953 284.140106,1052.604492 
	C283.784485,1052.402954 283.434967,1051.881348 283.137390,1051.023560 
z"/>
<path fill="#C7EDFE" opacity="1.000000" stroke="none" 
	d="
M319.543152,904.969910 
	C319.481659,905.353943 319.113098,905.779724 318.465210,906.288940 
	C318.535919,905.918884 318.886017,905.465271 319.543152,904.969910 
z"/>
<path fill="#C7EDFE" opacity="1.000000" stroke="none" 
	d="
M295.995697,930.298096 
	C296.050507,930.740417 295.795746,931.246826 295.286072,931.890625 
	C295.249481,931.472717 295.467804,930.917419 295.995697,930.298096 
z"/>
<path fill="#C7EDFE" opacity="1.000000" stroke="none" 
	d="
M367.082520,1158.373535 
	C367.336060,1158.148071 367.601624,1158.284180 367.872986,1158.789185 
	C367.630707,1158.984863 367.369293,1158.843872 367.082520,1158.373535 
z"/>
<path fill="#C7EDFE" opacity="1.000000" stroke="none" 
	d="
M374.051758,1164.372314 
	C374.308014,1164.140259 374.582977,1164.277100 374.865356,1164.793945 
	C374.617889,1164.994385 374.350433,1164.850220 374.051758,1164.372314 
z"/>
<path fill="#C7EDFE" opacity="1.000000" stroke="none" 
	d="
M385.049896,1173.361816 
	C385.300476,1173.137207 385.581787,1173.274536 385.886414,1173.780762 
	C385.638458,1173.990479 385.362091,1173.848511 385.049896,1173.361816 
z"/>
<path fill="#C7EDFE" opacity="1.000000" stroke="none" 
	d="
M353.331177,1145.974121 
	C353.593628,1145.866821 353.872162,1146.040894 354.227753,1146.455933 
	C353.985596,1146.549805 353.666412,1146.402588 353.331177,1145.974121 
z"/>
<path fill="#C7EDFE" opacity="1.000000" stroke="none" 
	d="
M432.179626,1204.273438 
	C432.371399,1204.141113 432.711304,1204.236450 433.194672,1204.563965 
	C433.001373,1204.697876 432.664581,1204.599487 432.179626,1204.273438 
z"/>
<path fill="#C7EDFE" opacity="1.000000" stroke="none" 
	d="
M348.277710,1141.019531 
	C348.525665,1140.917480 348.812927,1141.089111 349.179260,1141.506348 
	C348.944580,1141.599121 348.630768,1141.446289 348.277710,1141.019531 
z"/>
<path fill="#C7EDFE" opacity="1.000000" stroke="none" 
	d="
M338.266418,1131.025513 
	C338.514771,1130.926270 338.805237,1131.101440 339.172363,1131.526855 
	C338.935547,1131.618286 338.622009,1131.459106 338.266418,1131.025513 
z"/>
<path fill="#C7EDFE" opacity="1.000000" stroke="none" 
	d="
M337.236023,1129.934570 
	C337.488525,1129.849365 337.786652,1130.054443 338.168427,1130.523438 
	C337.928589,1130.599731 337.605103,1130.412231 337.236023,1129.934570 
z"/>
<path fill="#C7EDFE" opacity="1.000000" stroke="none" 
	d="
M334.023987,1126.377930 
	C334.283325,1126.169922 334.543854,1126.314331 334.773285,1126.834717 
	C334.522339,1126.996216 334.283356,1126.836182 334.023987,1126.377930 
z"/>
<path fill="#C7EDFE" opacity="1.000000" stroke="none" 
	d="
M333.035217,1125.362427 
	C333.299255,1125.161865 333.556854,1125.312012 333.779053,1125.833008 
	C333.522675,1125.993408 333.284424,1125.829834 333.035217,1125.362427 
z"/>
<path fill="#C7EDFE" opacity="1.000000" stroke="none" 
	d="
M323.079834,1114.221191 
	C323.380798,1114.025513 323.643463,1114.205078 323.847839,1114.770996 
	C323.554443,1114.938721 323.305145,1114.751587 323.079834,1114.221191 
z"/>
<path fill="#C7EDFE" opacity="1.000000" stroke="none" 
	d="
M284.111145,1053.114014 
	C284.450745,1052.975586 284.665009,1053.190308 284.727661,1053.765503 
	C284.398071,1053.876709 284.201294,1053.657104 284.111145,1053.114014 
z"/>
<path fill="#C7EDFE" opacity="1.000000" stroke="none" 
	d="
M296.862488,929.197510 
	C296.987793,929.414612 296.864868,929.732422 296.503906,930.156616 
	C296.382050,929.941406 296.498169,929.619812 296.862488,929.197510 
z"/>
<path fill="#C7EDFE" opacity="1.000000" stroke="none" 
	d="
M297.774567,928.123535 
	C297.867737,928.322632 297.730194,928.624756 297.348022,929.015259 
	C297.250244,928.811279 297.397064,928.518921 297.774567,928.123535 
z"/>
<path fill="#C7EDFE" opacity="1.000000" stroke="none" 
	d="
M320.693848,904.039856 
	C320.902039,904.322815 320.741455,904.590515 320.190063,904.808105 
	C320.025085,904.532043 320.200378,904.287659 320.693848,904.039856 
z"/>
<path fill="#C7EDFE" opacity="1.000000" stroke="none" 
	d="
M321.771179,903.078918 
	C321.824554,903.282227 321.641754,903.550598 321.213257,903.866943 
	C321.044647,903.575378 321.233795,903.318420 321.771179,903.078918 
z"/>
<path fill="#C7EDFE" opacity="1.000000" stroke="none" 
	d="
M322.841919,902.138916 
	C322.903351,902.356689 322.719055,902.640198 322.274292,902.966309 
	C322.207947,902.740845 322.402069,902.472778 322.841919,902.138916 
z"/>
<path fill="#C7EDFE" opacity="1.000000" stroke="none" 
	d="
M331.831299,895.106140 
	C331.879852,895.319641 331.691254,895.585388 331.251129,895.874939 
	C331.092224,895.567078 331.290436,895.320312 331.831299,895.106140 
z"/>
<path fill="#C7EDFE" opacity="1.000000" stroke="none" 
	d="
M354.159027,880.279053 
	C354.178375,880.525879 353.903412,880.774597 353.343872,881.055359 
	C353.327759,880.818604 353.596222,880.549805 354.159027,880.279053 
z"/>
<path fill="#7FD1FF" opacity="1.000000" stroke="none" 
	d="
M472.348938,837.970581 
	C470.111969,836.142517 467.838745,837.436646 465.395752,836.987549 
	C470.893005,835.364624 476.962891,835.556763 483.091309,835.684937 
	C479.645508,836.461609 476.199677,837.238281 472.348938,837.970581 
z"/>
<path fill="#5FB9FE" opacity="1.000000" stroke="none" 
	d="
M961.654297,835.755615 
	C960.222900,836.122986 958.479614,836.236694 956.476074,836.595947 
	C954.334351,837.132935 952.687988,836.404297 951.043640,834.847290 
	C954.476624,835.065491 957.909546,835.283752 961.654297,835.755615 
z"/>
<path fill="#5FB9FE" opacity="1.000000" stroke="none" 
	d="
M945.186768,834.295776 
	C946.343384,834.139648 947.336243,833.683655 948.172241,834.589844 
	C947.044006,835.094421 945.981567,835.230713 945.186768,834.295776 
z"/>
<path fill="#7FD1FF" opacity="1.000000" stroke="none" 
	d="
M486.175537,834.598022 
	C486.903687,834.346436 487.827881,834.258728 488.752075,834.171021 
	C488.760956,834.329163 488.769867,834.487305 488.778778,834.645447 
	C487.976379,834.684265 487.174011,834.723083 486.175537,834.598022 
z"/>
<path fill="#C7EFFE" opacity="1.000000" stroke="none" 
	d="
M454.276978,841.967102 
	C454.144836,841.548950 454.378784,841.408020 454.846252,841.661438 
	C454.951202,841.790283 454.514526,841.978882 454.276978,841.967102 
z"/>
</svg>