<?xml version="1.0" encoding="utf-8"?>
<!DOCTYPE svg PUBLIC "-//W3C//DTD SVG 1.0//EN" "http://www.w3.org/TR/2001/REC-SVG-20010904/DTD/svg10.dtd">
<svg version="1.0" xmlns="http://www.w3.org/2000/svg" width="512px" height="512px" viewBox="0 0 512 512" preserveAspectRatio="xMidYMid meet">
 <g fill="#1b1d1e">
  <path d="M0 256 l0 -256 256 0 256 0 0 256 0 256 -256 0 -256 0 0 -256z m261.30 212.50 c20.30 -3.45 34.65 -8.25 48.95 -16.50 35.80 -20.60 59.85 -54.85 66.70 -95 1.95 -11.50 2.30 -17.80 1.65 -28.55 -0.60 -9.25 -0.85 -11.35 -2.15 -18.45 -1.45 -7.75 -4.60 -18.45 -7.60 -25.75 -3.15 -7.65 -9.75 -19.55 -15.05 -27 -6.95 -9.80 -16.50 -19.85 -22.20 -23.20 -11.65 -7 -23.50 -7.75 -35.45 -2.30 -10.60 4.85 -19.30 14.75 -22.35 25.40 -1.75 6.30 -2.05 10.05 -1.15 15.35 1.60 9.20 4.80 15.50 11.65 23 9.60 10.45 13.70 19.65 15.25 34 1.15 10.95 -1.30 23.80 -6.35 32.95 -7.95 14.35 -21.50 24.05 -37.80 27.05 -4.95 0.95 -14.55 1 -20.30 0.20 -23.60 -3.40 -40.80 -20.05 -45.35 -43.95 -1.10 -5.95 -1 -16.65 0.30 -22.90 1.65 -8.10 4.55 -14.90 9.35 -21.60 0.95 -1.35 27.65 -28.50 59.35 -60.25 61.85 -62.05 59.85 -59.90 62.95 -68.15 1.75 -4.70 2.95 -11.95 2.55 -15.35 -1.65 -13.90 -9.45 -25.75 -21.25 -32.15 -4.20 -2.30 -8.65 -3.75 -14 -4.65 -3.65 -0.60 -4.85 -0.60 -8.75 0.05 -7.80 1.25 -14 3.95 -20 8.75 -4.70 3.80 -115.10 114.70 -119.65 120.20 -12.75 15.45 -21.50 32.80 -26.60 52.60 -7.15 27.80 -5.25 55.75 5.70 82.85 4.65 11.50 9.45 20 16.75 29.70 13.55 18.05 29.25 31.05 49.30 40.90 15.10 7.40 30.90 11.90 46.75 13.25 6.25 0.55 24.40 0.20 28.80 -0.50z m104.60 -330.75 c16.35 -4.40 28.90 -16.15 34.50 -32.25 5.95 -17.05 1.30 -36.05 -12.10 -49.25 -6.70 -6.65 -14 -10.85 -23.20 -13.35 -5.55 -1.50 -16.25 -1.50 -21.85 0 -13.80 3.70 -24.45 11.75 -31.35 23.70 -8.60 14.80 -9.05 30.25 -1.25 45.65 7.15 14.25 21.70 24.50 38.10 26.95 3.70 0.55 12.60 -0.20 17.15 -1.45z"/>
 </g>
 <g fill="#ffffff">
  <path d="M229.75 470.45 c-16.15 -1.75 -30.85 -6 -45.50 -13.20 -20.05 -9.85 -35.75 -22.85 -49.30 -40.90 -14.15 -18.80 -22.20 -39.15 -26 -65.60 -1.10 -7.60 -0.85 -26.05 0.50 -34.95 3.80 -25.55 13.85 -48.40 29.65 -67.60 4.55 -5.55 114.95 -116.40 119.70 -120.20 8.65 -6.95 20.30 -10.40 30.40 -9 2.50 0.35 6.25 1.20 8.30 1.85 22.15 7.10 33.90 31.55 25.70 53.50 -3.10 8.25 -1.10 6.10 -62.95 68.15 -31.70 31.75 -58.40 58.90 -59.35 60.25 -6.95 9.75 -10.30 20.15 -10.30 32 -0.05 26.90 18 48.55 44.40 53.25 4.10 0.75 14.95 0.75 19 0 23.50 -4.25 40.70 -22.55 43.70 -46.40 1.70 -13.60 -1.85 -27.65 -9.65 -38.35 -1 -1.35 -3.35 -4.20 -5.25 -6.25 -6.65 -7.30 -9.60 -12.85 -11.35 -21.40 -1.80 -8.95 -0.75 -17.65 3.10 -25.65 5.25 -10.85 15.30 -19.10 26.95 -22.20 4.55 -1.15 12.30 -1.55 16.70 -0.75 9.30 1.65 16.25 5.40 23.55 12.75 10.30 10.30 18.35 21.70 24.90 35.20 3.45 7.05 3.65 7.55 5.85 13.50 3.25 8.95 5.90 20.35 7.25 31.80 0.15 1.10 0.40 6.15 0.55 11.20 0.90 26.40 -6.15 52.85 -20.15 75.45 -22.10 35.80 -59.15 58.95 -101.65 63.60 -4.60 0.50 -23.95 0.45 -28.75 -0.05z"/>
 </g>
 <g fill="#96d04a">
  <path d="M347.25 140.70 c-26.20 -3.85 -44.85 -26.30 -43.60 -52.40 0.45 -9.20 2.30 -15.55 6.75 -23.20 6.90 -11.95 17.50 -19.95 31.35 -23.70 5.75 -1.60 19.20 -1.55 24.85 0 9.25 2.55 16.50 6.70 23.20 13.35 6.40 6.30 10.80 13.85 13.35 23 1.25 4.55 1.70 15.80 0.85 21.15 -2.55 15.90 -13.70 30.70 -28.20 37.35 -6.55 3.05 -12.10 4.30 -20.05 4.50 -3.85 0.10 -7.65 0.05 -8.50 -0.05z"/>
 </g>
</svg>